<svg xmlns="http://www.w3.org/2000/svg" width="72" height="72" viewBox="0 0 72 72">
  <defs>
    <linearGradient id="peachGradient" x1="50%" y1="0%" x2="50%" y2="100%">
      <stop offset="0%" stop-color="#ffc8d8"/>
      <stop offset="100%" stop-color="#ffa7c0"/>
    </linearGradient>
    <linearGradient id="leafGradient" x1="50%" y1="0%" x2="50%" y2="100%">
      <stop offset="0%" stop-color="#8db94c"/>
      <stop offset="100%" stop-color="#6a9a3d"/>
    </linearGradient>
  </defs>
  
  <!-- 1. 桃子主体 -->
  <g fill="url(#peachGradient)" stroke="#e67a94" stroke-width="1.5">
    <path d="M60.72 39.78c-.31 12.69-11.44 22.65-24.01 24.2c-.05.01-.1.01-.15.02h-.11c-.21 0-.41-.01-.63-.02c-11.34-2.56-22.28-12.53-23.42-24.2c0-1.76.19-3.49.55-5.15c.64-2.99 1.85-5.78 3.49-8.25c2.64-2.89 6.55-4.71 10.92-4.71c2.27 0 4.4.48 6.31 1.35c1.29.59 2.73.74 4.09.44c.45-.09.9-.24 1.33-.44c1.9-.87 4.04-1.35 6.3-1.35c4.88 0 9.2 2.27 11.8 5.76c.29.37.54.75.78 1.14c.49.93.91 1.89 1.28 2.88c.01.02.02.03.02.05c.12.32.23.65.33.98c.09.29.18.58.26.87c.07.26.14.51.2.77c.37 1.56.59 3.18.65 4.83c.01.28.01.55.01.83z"/>
  </g>
  
  <!-- 2. 桃子阴影 -->
  <g fill="#e67a94" stroke="#d1627e" stroke-width="1.5">
    <path d="M37.76 23.46c1.05-.2 2.05-.36 2.99-.46c-1.72.3-3.29.57-3.63.6c.22-.05.43-.1.64-.14zm22.96 16.32c-.31 12.69-11.44 22.65-24.01 24.2C56.924 59.261 68.125 20.056 40.75 23c2.16-.37 4.57-.77 5.09-.77c4.61 0 8.72 2.03 11.35 5.2c.29.37.54.75.78 1.14c.49.93.91 1.89 1.28 2.88c.01.02.02.03.02.05c.12.32.23.65.33.98c.09.29.18.58.26.87c.07.26.14.51.20.77c.39 1.56.62 3.17.65 4.83c.01.28.01.55.01.83z"/>
  </g>
  
  <!-- 3. 桃子斑点纹理 -->
  <g fill="#e67a94" opacity="0.4">
    <circle cx="45" cy="35" r="1.2"/>
    <circle cx="38" cy="40" r="1.5"/>
    <circle cx="50" cy="45" r="1"/>
    <circle cx="42" cy="30" r="0.8"/>
    <circle cx="35" cy="38" r="1.2"/>
  </g>
  
  <!-- 4. 桃子裂缝 -->
  <path fill="none" stroke="#d1627e" stroke-linecap="round" stroke-width="1.5" d="M37.72 36.595c-.719-3.444-3.407-5.532-3.407-5.532"/>
  
  <!-- 5. 桃子描边轮廓 -->
  <g fill="none" stroke="#6a4a3a" stroke-linecap="round" stroke-linejoin="round" stroke-miterlimit="10" stroke-width="1.5">
    <path d="M41.961 17.325c1.006-.828 2.118-1.563 3.32-2.092c5.633-2.48 13.249-.452 13.249-.452"/>
    <path d="M58.53 14.78s-1.1 2.105-3.023 4.413"/>
    <path d="M31.64 16.83c-1.005-.828-2.118-1.563-3.32-2.092c-5.633-2.479-13.248-.452-13.248-.452m0 0s1.024 1.961 2.825 4.174"/>
    <!-- 优化后的桃枝位置（向右下移动3个单位） -->
    <path d="M37.0 18.0c-1.8-2.3-3.5-4.7-5.5-6.5"/>
    <path d="M60.72 39.78c-.31 12.69-11.44 22.65-24.01 24.2c-.05.01-.1.01-.15.02h-.11c-.21 0-.42.03-.63-.02c-11.34-2.56-22.28-12.53-23.42-24.2c-.17-1.75.19-3.49.55-5.15c.64-2.99 1.85-5.78 3.49-8.25c2.64-2.89 6.55-4.71 10.92-4.71c2.27 0 4.4.48 6.31 1.35c1.29.59 2.73.74 4.09.44c.45-.09.9-.24 1.33-.44c1.9-.87 4.04-1.35 6.3-1.35c4.88 0 9.2 2.27 11.8 5.76c.29.37.54.75.78 1.14c.49.93.91 1.89 1.28 2.88c.01.02.02.03.02.05c.12.32.23.65.33.98c.09.29.18.58.26.87c.07.26.14.51.2.77c.39 1.56.62 3.17.65 4.83c.01.28.01.55.01.83"/>
    <path d="M40.987 52.864c2.042-7.167 3.244-17.616-3.737-24.614"/>
  </g>
  
  <!-- 6. 叶子（最上层覆盖） -->
  <g>
    <path fill="url(#leafGradient)" stroke="#6a9a3d" stroke-linejoin="round" stroke-miterlimit="10" stroke-width="1.5" d="M58.613 14.83s-3.721 6.953-9.376 9.376c-4.44 1.905-10.081 1.007-12.297.545c-2.224.417-7.882 1.2-12.282-.796c-5.605-2.537-9.183-9.564-9.183-9.564s7.63-1.942 13.234.595c1.205.542 2.307 1.284 3.309 2.124c3.786 3.185 4.813 3.56 10 .102c1.018-.82 2.135-1.538 3.35-2.056c5.656-2.423 13.245-.325 13.245-.325z"/>
  </g>
</svg>
